<?xml version="1.0" standalone="no"?>
<!DOCTYPE svg PUBLIC "-//W3C//DTD SVG 20010904//EN"
 "http://www.w3.org/TR/2001/REC-SVG-20010904/DTD/svg10.dtd">
<svg version="1.0" xmlns="http://www.w3.org/2000/svg"
 width="128.000000pt" height="128.000000pt" viewBox="0 0 128.000000 128.000000"
 preserveAspectRatio="xMidYMid meet">
<metadata>
Created by potrace 1.14, written by Peter Selinger 2001-2017
</metadata>
<g transform="translate(0.000000,128.000000) scale(0.100000,-0.100000)"
fill="#000000" stroke="none">
<path d="M557 954 c-3 -3 -4 -11 -1 -18 4 -11 -10 -15 -58 -19 -9 -1 -15 -4
-12 -8 5 -8 -35 -24 -49 -21 -5 1 -6 -1 -3 -6 3 -5 -9 -24 -27 -42 -18 -19
-26 -30 -19 -26 6 4 12 2 12 -3 0 -6 -4 -11 -8 -11 -5 0 -8 -10 -7 -22 1 -13
-2 -29 -8 -35 -5 -7 -6 -13 -1 -13 5 0 10 -14 11 -31 2 -26 0 -29 -12 -19 -8
7 -13 16 -10 20 3 5 1 11 -4 14 -11 7 -9 -13 3 -32 5 -8 -1 -20 -17 -32 -13
-11 -27 -33 -30 -50 -6 -26 -10 -30 -31 -26 -39 7 -88 -60 -67 -92 14 -22 78
-32 251 -38 90 -3 166 -7 168 -8 1 -2 -61 -55 -140 -117 -78 -63 -149 -120
-157 -127 -9 -7 48 19 126 58 79 38 147 70 151 70 5 0 14 -18 21 -39 l11 -39
177 79 c98 44 179 82 182 84 2 3 -2 11 -9 20 -17 21 -13 24 46 30 79 8 134 26
149 49 24 33 18 64 -14 84 -22 13 -27 22 -20 32 5 8 9 34 9 57 0 50 -32 94
-70 95 -66 1 -77 7 -84 48 -7 47 -40 87 -81 99 -44 12 -117 -13 -161 -54 -28
-27 -40 -32 -46 -23 -4 7 -8 17 -8 22 0 5 -3 7 -6 4 -3 -4 -14 1 -23 10 -10
10 -26 23 -37 30 -10 7 -13 10 -5 6 9 -5 12 -3 7 5 -6 9 -11 9 -21 1 -9 -7
-16 -6 -25 5 -10 12 -16 13 -26 4 -13 -11 -19 -2 -15 24 1 9 -4 9 -12 1z m203
-538 c-24 -16 -37 -20 -42 -12 -17 26 -7 36 34 36 l42 0 -34 -24z"/>
<path d="M461 914 c0 -11 3 -14 6 -6 3 7 2 16 -1 19 -3 4 -6 -2 -5 -13z"/>
<path d="M726 875 c4 -8 8 -15 10 -15 2 0 4 7 4 15 0 8 -4 15 -10 15 -5 0 -7
-7 -4 -15z"/>
<path d="M355 811 c-3 -5 -2 -12 3 -15 5 -3 9 1 9 9 0 17 -3 19 -12 6z"/>
<path d="M350 776 c0 -2 8 -10 18 -17 15 -13 16 -12 3 4 -13 16 -21 21 -21 13z"/>
</g>
</svg>
